<svg width="180" height="91" viewBox="0 0 180 91" fill="none" xmlns="http://www.w3.org/2000/svg">
<g clip-path="url(#clip0_53_28)">
<g filter="url(#filter0_d_53_28)">
<path fill-rule="evenodd" clip-rule="evenodd" d="M155.105 24.4411C155.105 25.2553 155.063 26.0597 154.981 26.8524C157.501 24.6686 160.793 23.3465 164.393 23.3465C172.321 23.3465 178.748 29.7551 178.748 37.6605C178.748 45.566 172.321 51.9745 164.393 51.9745H108.589C108.585 51.9745 108.582 51.9745 108.578 51.9745C108.574 51.9745 108.57 51.9745 108.566 51.9745H108.493C100.371 51.9287 93.8007 45.3493 93.8007 37.2395C93.8007 29.1595 100.323 22.5985 108.404 22.5055C109.391 10.5299 119.45 1.11771 131.715 1.11771C144.633 1.11771 155.105 11.56 155.105 24.4411Z" fill="url(#paint0_linear_53_28)"/>
<mask id="mask0_53_28" style="mask-type:luminance" maskUnits="userSpaceOnUse" x="92" y="0" width="88" height="54">
<path d="M179.866 0H92.6829V53.0923H179.866V0Z" fill="white"/>
<path fill-rule="evenodd" clip-rule="evenodd" d="M155.105 24.4411C155.105 25.2553 155.063 26.0597 154.981 26.8524C157.501 24.6686 160.793 23.3465 164.393 23.3465C172.321 23.3465 178.748 29.7551 178.748 37.6605C178.748 45.566 172.321 51.9745 164.393 51.9745H108.589C108.585 51.9745 108.582 51.9745 108.578 51.9745C108.574 51.9745 108.57 51.9745 108.566 51.9745H108.493C100.371 51.9287 93.8007 45.3493 93.8007 37.2395C93.8007 29.1595 100.323 22.5985 108.404 22.5055C109.391 10.5299 119.45 1.11771 131.715 1.11771C144.633 1.11771 155.105 11.56 155.105 24.4411Z" fill="black"/>
</mask>
<g mask="url(#mask0_53_28)">
<path d="M154.981 26.8524L153.869 26.7379L153.58 29.5456L155.714 27.6971L154.981 26.8524ZM108.493 51.9746H107.376V53.0923H108.493V51.9746ZM108.493 51.9746H109.611V50.863L108.5 50.8568L108.493 51.9746ZM108.404 22.5055L108.417 23.6232L109.434 23.6115L109.518 22.5973L108.404 22.5055ZM156.093 26.9669C156.179 26.1363 156.223 25.2936 156.223 24.4411H153.987C153.987 25.217 153.948 25.9832 153.869 26.7379L156.093 26.9669ZM164.393 22.2288C160.514 22.2288 156.965 23.6542 154.249 26.0077L155.714 27.6971C158.038 25.6829 161.071 24.4643 164.393 24.4643V22.2288ZM179.866 37.6605C179.866 29.1348 172.936 22.2288 164.393 22.2288V24.4643C171.707 24.4643 177.631 30.3754 177.631 37.6605H179.866ZM164.393 53.0923C172.936 53.0923 179.866 46.1863 179.866 37.6605H177.631C177.631 44.9456 171.707 50.8568 164.393 50.8568V53.0923ZM164.393 50.8568H108.589V53.0923H164.393V50.8568ZM108.578 53.0923C108.58 53.0923 108.582 53.0923 108.584 53.0923C108.586 53.0923 108.588 53.0923 108.589 53.0923V50.8568C108.587 50.8568 108.585 50.8568 108.583 50.8568C108.581 50.8568 108.579 50.8568 108.578 50.8568V53.0923ZM108.566 53.0923C108.568 53.0923 108.57 53.0923 108.572 53.0923C108.573 53.0923 108.576 53.0923 108.578 53.0923V50.8568C108.576 50.8568 108.575 50.8568 108.573 50.8568C108.571 50.8568 108.569 50.8568 108.566 50.8568V53.0923ZM108.566 50.8568H108.493V53.0923H108.566V50.8568ZM92.6829 37.2395C92.6829 45.9676 99.7533 53.0431 108.487 53.0923L108.5 50.8568C100.989 50.8149 94.9184 44.7312 94.9184 37.2395H92.6829ZM108.391 21.3879C99.7014 21.4878 92.6829 28.5435 92.6829 37.2395H94.9184C94.9184 29.7755 100.944 23.7091 108.417 23.6232L108.391 21.3879ZM131.715 0C118.866 0 108.324 9.86058 107.29 22.4138L109.518 22.5973C110.457 11.1993 120.034 2.23546 131.715 2.23546V0ZM156.223 24.4411C156.223 10.9396 145.247 0 131.715 0V2.23546C144.018 2.23546 153.987 12.1803 153.987 24.4411H156.223Z" fill="url(#paint1_linear_53_28)"/>
</g>
</g>
</g>
<g clip-path="url(#clip1_53_28)">
<g filter="url(#filter1_bd_53_28)">
<path fill-rule="evenodd" clip-rule="evenodd" d="M103.6 43.1551C103.6 44.5199 103.529 45.8683 103.393 47.1969C107.605 43.5363 113.106 41.3203 119.125 41.3203C132.376 41.3203 143.118 52.0626 143.118 65.3136C143.118 78.5653 132.376 89.3076 119.125 89.3076H25.8531C25.8461 89.3076 25.8392 89.3076 25.8322 89.3076C25.8252 89.3076 25.8183 89.3076 25.8113 89.3076H25.691C12.115 89.2316 1.13297 78.2022 1.13297 64.6083C1.13297 51.0642 12.0344 40.0664 25.5415 39.9106C27.1906 19.8368 44.0049 4.05978 64.5043 4.05978C86.0958 4.05978 103.6 21.5634 103.6 43.1551Z" fill="url(#paint2_linear_53_28)"/>
<mask id="mask1_53_28" style="mask-type:luminance" maskUnits="userSpaceOnUse" x="0" y="2" width="145" height="89">
<path d="M144.453 2.92682H0V90.7317H144.453V2.92682Z" fill="white"/>
<path fill-rule="evenodd" clip-rule="evenodd" d="M103.6 43.1551C103.6 44.5199 103.529 45.8683 103.393 47.1969C107.605 43.5363 113.106 41.3203 119.125 41.3203C132.376 41.3203 143.118 52.0626 143.118 65.3136C143.118 78.5653 132.376 89.3076 119.125 89.3076H25.8531C25.8461 89.3076 25.8392 89.3076 25.8322 89.3076C25.8252 89.3076 25.8183 89.3076 25.8113 89.3076H25.691C12.115 89.2316 1.13297 78.2022 1.13297 64.6083C1.13297 51.0642 12.0344 40.0664 25.5415 39.9106C27.1906 19.8368 44.0049 4.05978 64.5043 4.05978C86.0958 4.05978 103.6 21.5634 103.6 43.1551Z" fill="black"/>
</mask>
<g mask="url(#mask1_53_28)">
<path d="M103.393 47.1969L102.266 47.0812L101.973 49.9319L104.136 48.0521L103.393 47.1969ZM25.691 89.3076H24.5581V90.4405H25.691V89.3076ZM25.691 89.3076L26.824 89.307V88.1803L25.6974 88.174L25.691 89.3076ZM25.5415 39.9106L25.5546 41.0435L26.5862 41.0316L26.6706 40.0034L25.5415 39.9106ZM104.52 47.3127C104.661 45.9456 104.733 44.5586 104.733 43.1551H102.467C102.467 44.4811 102.399 45.7909 102.266 47.0812L104.52 47.3127ZM119.125 40.1874C112.822 40.1874 107.06 42.5089 102.65 46.3418L104.136 48.0521C108.15 44.5638 113.39 42.4533 119.125 42.4533V40.1874ZM144.251 65.3136C144.251 51.4369 133.002 40.1874 119.125 40.1874V42.4533C131.75 42.4533 141.985 52.6883 141.985 65.3136H144.251ZM119.125 90.4405C133.002 90.4405 144.251 79.1907 144.251 65.3136H141.985C141.985 77.9394 131.75 88.1746 119.125 88.1746V90.4405ZM119.125 88.1746H25.8531V90.4405H119.125V88.1746ZM25.8322 90.4405C25.8361 90.4405 25.8399 90.4405 25.8434 90.4405C25.8469 90.4405 25.85 90.4405 25.8531 90.4405V88.1746C25.8492 88.1746 25.8453 88.1746 25.8419 88.1746C25.8384 88.1746 25.8353 88.1746 25.8322 88.1746V90.4405ZM25.8113 90.4405C25.8143 90.4405 25.8175 90.4405 25.821 90.4405C25.8244 90.4405 25.8283 90.4405 25.8322 90.4405V88.1746C25.8291 88.1746 25.826 88.1746 25.8224 88.1746C25.8191 88.1746 25.8152 88.1746 25.8113 88.1746V90.4405ZM25.8113 88.1746H25.691V90.4405H25.8113V88.1746ZM0 64.6083C0 78.8259 11.4858 90.3607 25.6847 90.44L25.6974 88.174C12.7442 88.1015 2.26593 77.5785 2.26593 64.6083H0ZM25.5284 38.7777C11.4015 38.9406 0 50.4429 0 64.6083H2.26593C2.26593 51.6855 12.6674 41.1921 25.5546 41.0435L25.5284 38.7777ZM64.5043 2.92682C43.4103 2.92682 26.1093 19.1611 24.4123 39.8178L26.6706 40.0034C28.2719 20.5125 44.5995 5.19275 64.5043 5.19275V2.92682ZM104.733 43.1551C104.733 20.9376 86.7218 2.92682 64.5043 2.92682V5.19275C85.4704 5.19275 102.467 22.1891 102.467 43.1551H104.733Z" fill="url(#paint3_linear_53_28)"/>
</g>
</g>
</g>
<defs>
<filter id="filter0_d_53_28" x="77.6829" y="-11" width="117.183" height="83.0923" filterUnits="userSpaceOnUse" color-interpolation-filters="sRGB">
<feFlood flood-opacity="0" result="BackgroundImageFix"/>
<feColorMatrix in="SourceAlpha" type="matrix" values="0 0 0 0 0 0 0 0 0 0 0 0 0 0 0 0 0 0 127 0" result="hardAlpha"/>
<feOffset dy="4"/>
<feGaussianBlur stdDeviation="7.5"/>
<feComposite in2="hardAlpha" operator="out"/>
<feColorMatrix type="matrix" values="0 0 0 0 0 0 0 0 0 0 0 0 0 0 0 0 0 0 0.1 0"/>
<feBlend mode="normal" in2="BackgroundImageFix" result="effect1_dropShadow_53_28"/>
<feBlend mode="normal" in="SourceGraphic" in2="effect1_dropShadow_53_28" result="shape"/>
</filter>
<filter id="filter1_bd_53_28" x="-15" y="-8.07318" width="174.251" height="117.514" filterUnits="userSpaceOnUse" color-interpolation-filters="sRGB">
<feFlood flood-opacity="0" result="BackgroundImageFix"/>
<feGaussianBlur in="BackgroundImageFix" stdDeviation="4"/>
<feComposite in2="SourceAlpha" operator="in" result="effect1_backgroundBlur_53_28"/>
<feColorMatrix in="SourceAlpha" type="matrix" values="0 0 0 0 0 0 0 0 0 0 0 0 0 0 0 0 0 0 127 0" result="hardAlpha"/>
<feOffset dy="4"/>
<feGaussianBlur stdDeviation="7.5"/>
<feComposite in2="hardAlpha" operator="out"/>
<feColorMatrix type="matrix" values="0 0 0 0 0 0 0 0 0 0 0 0 0 0 0 0 0 0 0.1 0"/>
<feBlend mode="normal" in2="effect1_backgroundBlur_53_28" result="effect2_dropShadow_53_28"/>
<feBlend mode="normal" in="SourceGraphic" in2="effect2_dropShadow_53_28" result="shape"/>
</filter>
<linearGradient id="paint0_linear_53_28" x1="120.203" y1="0.905616" x2="140.536" y2="52.2266" gradientUnits="userSpaceOnUse">
<stop stop-color="white"/>
<stop offset="0.708333" stop-color="#9DDCFF" stop-opacity="0.69"/>
</linearGradient>
<linearGradient id="paint1_linear_53_28" x1="133.519" y1="-16.4933" x2="161.612" y2="72.8365" gradientUnits="userSpaceOnUse">
<stop stop-color="white"/>
<stop offset="0.713542" stop-color="#85C6EC" stop-opacity="0.71"/>
</linearGradient>
<linearGradient id="paint2_linear_53_28" x1="45.2635" y1="3.70426" x2="79.417" y2="89.6627" gradientUnits="userSpaceOnUse">
<stop stop-color="white"/>
<stop offset="0.708333" stop-color="#9DDCFF" stop-opacity="0.69"/>
</linearGradient>
<linearGradient id="paint3_linear_53_28" x1="67.5208" y1="-25.4603" x2="114.721" y2="124.2" gradientUnits="userSpaceOnUse">
<stop stop-color="white"/>
<stop offset="0.713542" stop-color="#85C6EC" stop-opacity="0.71"/>
</linearGradient>
<clipPath id="clip0_53_28">
<rect width="87.3171" height="53.0923" fill="white" transform="translate(92.6829)"/>
</clipPath>
<clipPath id="clip1_53_28">
<rect width="144.39" height="87.8049" fill="white" transform="translate(0 2.92682)"/>
</clipPath>
</defs>
</svg>
