<svg width="25" height="25" viewBox="0 0 25 25" fill="none" xmlns="http://www.w3.org/2000/svg">
<path d="M19.4141 14.0234C18.4766 8.28125 11.5234 1.5625 11.2109 1.28906C11.0547 1.13281 10.8203 1.13281 10.6641 1.28906C10.3125 1.60156 2.34375 9.25781 2.34375 15.2344C2.34375 19.9609 6.21094 23.8281 10.9375 23.8281C12.2656 23.8281 13.5547 23.5156 14.7266 22.9297C15.5469 23.4766 16.5234 23.8281 17.5781 23.8281C20.3906 23.8281 22.6562 21.5625 22.6562 18.75C22.6562 16.6016 21.3281 14.7656 19.4141 14.0234ZM10.9375 23.0469C6.64062 23.0469 3.125 19.5312 3.125 15.2344C3.125 10.1953 9.53125 3.51562 10.9375 2.10938C12.2266 3.39844 17.5781 8.98437 18.5938 13.7891C18.2422 13.7109 17.9297 13.6719 17.5781 13.6719C14.7656 13.6719 12.5 15.9375 12.5 18.75C12.5 20.1953 13.0859 21.4844 14.0625 22.3828C13.0859 22.8125 12.0312 23.0469 10.9375 23.0469ZM17.5781 23.0469C15.1953 23.0469 13.2812 21.1328 13.2812 18.75C13.2812 16.3672 15.1953 14.4531 17.5781 14.4531C19.9609 14.4531 21.875 16.3672 21.875 18.75C21.875 21.1328 19.9609 23.0469 17.5781 23.0469Z" fill="white"/>
<path d="M10.9375 21.0938C7.69531 21.0938 5.07812 18.4766 5.07812 15.2344C5.07812 15 4.92188 14.8438 4.6875 14.8438C4.45312 14.8438 4.29688 15 4.29688 15.2344C4.29688 18.9062 7.26563 21.875 10.9375 21.875C11.1719 21.875 11.3281 21.7188 11.3281 21.4844C11.3281 21.25 11.1719 21.0938 10.9375 21.0938Z" fill="white"/>
<path d="M18.9062 15.6641C18.7109 15.5859 18.4765 15.6641 18.3984 15.8594L16.0547 21.3281C15.9765 21.5234 16.0547 21.7578 16.25 21.8359C16.289 21.875 16.3672 21.875 16.4062 21.875C16.5625 21.875 16.7187 21.7969 16.7578 21.6406L19.1015 16.1719C19.1797 15.9766 19.1015 15.7422 18.9062 15.6641Z" fill="white"/>
<path d="M17.1875 17.1875C17.1875 16.5234 16.6797 16.0156 16.0156 16.0156C15.3516 16.0156 14.8438 16.5234 14.8438 17.1875C14.8438 17.8516 15.3516 18.3594 16.0156 18.3594C16.6797 18.3594 17.1875 17.8516 17.1875 17.1875ZM15.625 17.1875C15.625 16.9531 15.7812 16.7969 16.0156 16.7969C16.25 16.7969 16.4062 16.9531 16.4062 17.1875C16.4062 17.4219 16.25 17.5781 16.0156 17.5781C15.7812 17.5781 15.625 17.4219 15.625 17.1875Z" fill="white"/>
<path d="M19.1406 19.1406C18.4766 19.1406 17.9688 19.6484 17.9688 20.3125C17.9688 20.9766 18.4766 21.4844 19.1406 21.4844C19.8047 21.4844 20.3125 20.9766 20.3125 20.3125C20.3125 19.6484 19.8047 19.1406 19.1406 19.1406ZM19.1406 20.7031C18.9062 20.7031 18.75 20.5469 18.75 20.3125C18.75 20.0781 18.9062 19.9219 19.1406 19.9219C19.375 19.9219 19.5312 20.0781 19.5312 20.3125C19.5312 20.5469 19.375 20.7031 19.1406 20.7031Z" fill="white"/>
</svg>
