<svg width="25" height="25" viewBox="0 0 25 25" fill="none" xmlns="http://www.w3.org/2000/svg">
<g clip-path="url(#clip0_21_67)">
<path d="M16.6667 13.5417V21.875" stroke="white" stroke-width="2" stroke-linecap="round" stroke-linejoin="round"/>
<path d="M8.33331 13.5417V21.875" stroke="white" stroke-width="2" stroke-linecap="round" stroke-linejoin="round"/>
<path d="M12.5 15.625V23.9583" stroke="white" stroke-width="2" stroke-linecap="round" stroke-linejoin="round"/>
<path d="M20.8333 17.2708C21.9284 16.7912 22.8251 15.9495 23.373 14.887C23.9209 13.8245 24.0866 12.6058 23.8423 11.4356C23.598 10.2654 22.9585 9.2148 22.0313 8.46024C21.104 7.70568 19.9455 7.29307 18.75 7.29166H17.4375C17.1073 6.01304 16.478 4.83119 15.6014 3.84354C14.7247 2.85588 13.626 2.0907 12.3956 1.61106C11.1652 1.13142 9.83844 0.951055 8.52466 1.08483C7.21089 1.21861 5.94771 1.6627 4.83926 2.3805C3.73081 3.0983 2.80881 4.06925 2.14927 5.21333C1.48973 6.3574 1.11153 7.64184 1.04584 8.96078C0.980151 10.2797 1.22886 11.5954 1.77146 12.7993C2.31406 14.0033 3.13501 15.061 4.16666 15.8854" stroke="white" stroke-width="2" stroke-linecap="round" stroke-linejoin="round"/>
</g>
<defs>
<clipPath id="clip0_21_67">
<rect width="25" height="25" fill="white"/>
</clipPath>
</defs>
</svg>
