<svg width="248" height="130" viewBox="0 0 248 130" fill="none" xmlns="http://www.w3.org/2000/svg">
<rect width="18.7946" height="52.0322" rx="9.3973" transform="matrix(0.966176 0.257884 -0.259757 0.965674 13.5157 74.907)" fill="url(#paint0_linear_1_160)"/>
<rect width="18.7946" height="52.0322" rx="9.3973" transform="matrix(0.966176 0.257884 -0.259757 0.965674 74.434 74.907)" fill="url(#paint1_linear_1_160)"/>
<rect width="18.7946" height="52.0322" rx="9.3973" transform="matrix(0.966176 0.257884 -0.259757 0.965674 135.352 74.907)" fill="url(#paint2_linear_1_160)"/>
<rect width="18.7946" height="52.0322" rx="9.3973" transform="matrix(0.966176 0.257884 -0.259757 0.965674 196.27 74.907)" fill="url(#paint3_linear_1_160)"/>
<rect width="18.7946" height="52.0322" rx="9.3973" transform="matrix(0.966176 0.257884 -0.259757 0.965674 46.937 0)" fill="url(#paint4_linear_1_160)"/>
<rect width="18.7946" height="52.0322" rx="9.3973" transform="matrix(0.966176 0.257884 -0.259757 0.965674 107.855 0)" fill="url(#paint5_linear_1_160)"/>
<rect width="18.7946" height="52.0322" rx="9.39729" transform="matrix(0.966176 0.257884 -0.259757 0.965674 168.773 0)" fill="url(#paint6_linear_1_160)"/>
<rect width="18.7946" height="52.0322" rx="9.39729" transform="matrix(0.966176 0.257884 -0.259757 0.965674 229.692 0)" fill="url(#paint7_linear_1_160)"/>
<defs>
<linearGradient id="paint0_linear_1_160" x1="2.08829" y1="45.7884" x2="18.6995" y2="6.20398" gradientUnits="userSpaceOnUse">
<stop stop-color="#3981EE"/>
<stop offset="1" stop-color="#92BDFF"/>
</linearGradient>
<linearGradient id="paint1_linear_1_160" x1="2.08829" y1="45.7884" x2="18.6995" y2="6.20398" gradientUnits="userSpaceOnUse">
<stop stop-color="#3981EE"/>
<stop offset="1" stop-color="#92BDFF"/>
</linearGradient>
<linearGradient id="paint2_linear_1_160" x1="2.08829" y1="45.7884" x2="18.6995" y2="6.20397" gradientUnits="userSpaceOnUse">
<stop stop-color="#3981EE"/>
<stop offset="1" stop-color="#92BDFF"/>
</linearGradient>
<linearGradient id="paint3_linear_1_160" x1="2.08829" y1="45.7884" x2="18.6995" y2="6.20397" gradientUnits="userSpaceOnUse">
<stop stop-color="#3981EE"/>
<stop offset="1" stop-color="#92BDFF"/>
</linearGradient>
<linearGradient id="paint4_linear_1_160" x1="2.08829" y1="45.7884" x2="18.6995" y2="6.20398" gradientUnits="userSpaceOnUse">
<stop stop-color="#3981EE"/>
<stop offset="1" stop-color="#92BDFF"/>
</linearGradient>
<linearGradient id="paint5_linear_1_160" x1="2.08829" y1="45.7884" x2="18.6995" y2="6.20398" gradientUnits="userSpaceOnUse">
<stop stop-color="#3981EE"/>
<stop offset="1" stop-color="#92BDFF"/>
</linearGradient>
<linearGradient id="paint6_linear_1_160" x1="2.08829" y1="45.7884" x2="18.6995" y2="6.20398" gradientUnits="userSpaceOnUse">
<stop stop-color="#3981EE"/>
<stop offset="1" stop-color="#92BDFF"/>
</linearGradient>
<linearGradient id="paint7_linear_1_160" x1="2.08829" y1="45.7884" x2="18.6995" y2="6.20398" gradientUnits="userSpaceOnUse">
<stop stop-color="#3981EE"/>
<stop offset="1" stop-color="#92BDFF"/>
</linearGradient>
</defs>
</svg>
