<svg width="24" height="24" viewBox="0 0 24 24" fill="none" xmlns="http://www.w3.org/2000/svg">
<g id="Search Icon 1" clip-path="url(#clip0_30_7)">
<path id="Vector" fill-rule="evenodd" clip-rule="evenodd" d="M17.6842 9.47368C17.6842 14.0083 14.0083 17.6842 9.47368 17.6842C4.93914 17.6842 1.26316 14.0083 1.26316 9.47368C1.26316 4.93914 4.93914 1.26316 9.47368 1.26316C14.0083 1.26316 17.6842 4.93914 17.6842 9.47368ZM15.7203 16.5964C14.0528 18.06 11.8668 18.9474 9.47368 18.9474C4.24151 18.9474 0 14.7058 0 9.47368C0 4.24151 4.24151 0 9.47368 0C14.7058 0 18.9474 4.24151 18.9474 9.47368C18.9474 11.858 18.0666 14.0366 16.6125 15.7018L23.1728 21.9609C23.4251 22.2016 23.4346 22.6014 23.1939 22.8538C22.953 23.1062 22.5532 23.1157 22.3009 22.8748L15.7203 16.5964Z" fill="white"/>
</g>
<defs>
<clipPath id="clip0_30_7">
<rect width="24" height="24" fill="white"/>
</clipPath>
</defs>
</svg>
