<svg width="25" height="25" viewBox="0 0 25 25" fill="none" xmlns="http://www.w3.org/2000/svg">
<path d="M3.71094 15.8203H14.1289C14.6987 15.8203 15.2452 16.0467 15.6481 16.4496C16.051 16.8525 16.2773 17.3989 16.2773 17.9688C16.2773 18.5386 16.051 19.085 15.6481 19.4879C15.2452 19.8908 14.6987 20.1172 14.1289 20.1172" stroke="white" stroke-miterlimit="10" stroke-linecap="round"/>
<path d="M16.2109 6.44531C16.5735 6.44531 16.9213 6.58935 17.1777 6.84575C17.4341 7.10215 17.5781 7.4499 17.5781 7.8125C17.5781 8.1751 17.4341 8.52285 17.1777 8.77925C16.9213 9.03565 16.5735 9.17969 16.2109 9.17969H3.71094" stroke="white" stroke-miterlimit="10" stroke-linecap="round"/>
<path d="M15.8203 12.6953H20.7031C20.9797 12.6953 21.245 12.8052 21.4406 13.0008C21.6362 13.1964 21.7461 13.4617 21.7461 13.7383C21.7451 14.0142 21.6347 14.2785 21.4392 14.4732C21.2438 14.668 20.9791 14.7773 20.7031 14.7773" stroke="white" stroke-miterlimit="10" stroke-linecap="round"/>
<path d="M10.3516 12.6953H13.4766" stroke="white" stroke-miterlimit="10" stroke-linecap="round"/>
<path d="M3.71094 12.6953H8.00781" stroke="white" stroke-miterlimit="10" stroke-linecap="round"/>
</svg>
